<svg width="65" height="60" viewBox="0 0 65 60" fill="none" xmlns="http://www.w3.org/2000/svg">
<path d="M29.581 42.1911L46.4624 25.295L43.0861 21.9908L29.581 35.5077L22.5283 28.4489L19.152 31.7531L29.581 42.1911ZM32.8072 59.3125C29.0558 59.3125 25.5169 58.5991 22.1907 57.1723C18.8644 55.7455 15.9633 53.7931 13.4873 51.315C11.0114 48.8369 9.04814 45.9333 7.59759 42.6041C6.14704 39.275 5.42176 35.708 5.42176 31.9032C5.42176 28.0985 6.14704 24.544 7.59759 21.2399C9.04814 17.9358 11.0114 15.0321 13.4873 12.529C15.9633 10.0259 18.8644 8.06094 22.1907 6.63415C25.5169 5.20737 29.0558 4.49398 32.8072 4.49398C36.5586 4.49398 40.0975 5.20737 43.4238 6.63415C46.75 8.06094 49.6636 10.0259 52.1646 12.529C54.6656 15.0321 56.6288 17.9358 58.0544 21.2399C59.4799 24.544 60.1927 28.0985 60.1927 31.9032C60.1927 35.708 59.4799 39.275 58.0544 42.6041C56.6288 45.9333 54.6656 48.8369 52.1646 51.315C49.6636 53.7931 46.75 55.7455 43.4238 57.1723C40.0975 58.5991 36.5586 59.3125 32.8072 59.3125ZM12.6995 -0.6875L16.0758 2.61663L3.32096 14.932L0.0947265 11.5528L12.6995 -0.6875ZM52.9149 -0.6875L65.5947 11.5528L62.2935 14.932L49.5386 2.61663L52.9149 -0.6875ZM32.8072 54.2061C39.0096 54.2061 44.2741 52.0409 48.6007 47.7105C52.9274 43.3801 55.0907 38.111 55.0907 31.9032C55.0907 25.6955 52.9274 20.4264 48.6007 16.096C44.2741 11.7656 39.0096 9.60036 32.8072 9.60036C26.6048 9.60036 21.3403 11.7656 17.0137 16.096C12.687 20.4264 10.5237 25.6955 10.5237 31.9032C10.5237 38.111 12.687 43.3801 17.0137 47.7105C21.3403 52.0409 26.6048 54.2061 32.8072 54.2061Z" fill="#6D8EF2"/>
</svg>
