<svg width="574" height="566" viewBox="0 0 574 566" fill="none" xmlns="http://www.w3.org/2000/svg">
<path d="M495.576 63.3835C524.209 89.7251 545.111 117.391 558.281 146.383C571.833 174.958 576.584 203.107 572.534 230.829C569.28 258.517 556.952 283.993 535.55 307.257C514.148 330.521 488.606 345.376 458.926 351.82C429.661 358.646 397.485 357.809 362.399 349.308C328.11 340.774 292.571 326.104 255.781 305.298L172.082 396.277L159.633 384.824L248.491 288.236C283.359 301.138 312.543 306.893 336.043 305.501C359.957 304.491 380.678 298.625 398.204 287.903C415.73 277.181 431.946 263.718 446.851 247.517C483.159 208.051 501.869 172.722 502.982 141.531C504.51 110.721 493.447 84.436 469.794 62.6756C459.005 52.7497 446.878 44.2779 433.414 37.2601C420.746 30.2086 408.658 27.5248 397.148 29.2088C404.432 41.2791 407.523 53.3268 406.42 65.352C406.115 77.3436 400.994 88.7399 391.057 99.5411C379.974 111.589 366.651 117.741 351.09 117.999C335.912 117.842 321.683 111.655 308.404 99.4383C296.785 88.7489 290.871 76.0218 290.663 61.2569C290.456 46.492 295.32 33.709 305.257 22.9079C315.576 11.6913 327.67 4.7919 341.538 2.20976C355.406 -0.372407 369.995 0.00965456 385.305 3.35594C400.2 6.32047 417.219 12.3896 436.362 21.5633C455.505 30.7371 475.243 44.6771 495.576 63.3835ZM108.628 455.256C122.737 468.236 130.534 483.08 132.02 499.787C133.505 516.494 127.942 531.703 115.33 545.412C102.718 559.121 88.0251 565.931 71.2521 565.84C54.4791 565.75 39.0381 559.215 24.9292 546.235C10.4053 532.873 2.40053 517.839 0.914952 501.132C-0.155655 484.806 5.61513 469.789 18.2273 456.079C30.8394 442.37 45.3245 435.37 61.6826 435.078C78.4556 435.169 94.1041 441.895 108.628 455.256Z" fill="#E8E8E8"/>
</svg>
