<svg width="60" height="60" viewBox="0 0 60 60" fill="none" xmlns="http://www.w3.org/2000/svg">
<path d="M18.1773 47.734L30 38.7192L41.8227 47.734L37.0936 33.1773L48.9163 24.8276H34.5074L30 9.82759L25.4187 24.8276H11.0099L22.8325 33.1773L18.1773 47.734ZM30 60C25.9113 60 22.032 59.2118 18.3621 57.6355C14.6921 56.0591 11.5025 53.9163 8.7931 51.2069C6.08374 48.4975 3.94089 45.3202 2.36453 41.6749C0.788177 38.0296 0 34.1379 0 30C0 25.8621 0.788177 21.9581 2.36453 18.2882C3.94089 14.6182 6.08374 11.4409 8.7931 8.75616C11.5025 6.07143 14.6798 3.94089 18.3251 2.36453C21.9704 0.788177 25.8621 0 30 0C34.1379 0 38.0419 0.788177 41.7118 2.36453C45.3818 3.94089 48.5591 6.07143 51.2438 8.75616C53.9286 11.4409 56.0591 14.6059 57.6355 18.2512C59.2118 21.8966 60 25.8128 60 30C60 34.1379 59.2118 38.0296 57.6355 41.6749C56.0591 45.3202 53.9286 48.4975 51.2438 51.2069C48.5591 53.9163 45.3941 56.0591 41.7488 57.6355C38.1035 59.2118 34.1872 60 30 60ZM30 54.9754C36.9458 54.9754 42.8448 52.5369 47.697 47.6601C52.5493 42.7833 54.9754 36.8966 54.9754 30C54.9754 23.0542 52.5493 17.1552 47.697 12.303C42.8448 7.45074 36.9458 5.02463 30 5.02463C23.1034 5.02463 17.2167 7.45074 12.3399 12.303C7.46306 17.1552 5.02463 23.0542 5.02463 30C5.02463 36.8966 7.46306 42.7833 12.3399 47.6601C17.2167 52.5369 23.1034 54.9754 30 54.9754Z" fill="#6D8EF2"/>
</svg>
