<svg width="106" height="117" viewBox="0 0 106 117" fill="none" xmlns="http://www.w3.org/2000/svg">
<path d="M46.8288 70.1712V58.3559H58.6441V70.1712H46.8288ZM23.7746 70.1712V58.3559H35.5899V70.1712H23.7746ZM69.883 70.1712V58.3559H81.6983V70.1712H69.883ZM46.8288 93.2254V81.4101H58.6441V93.2254H46.8288ZM23.7746 93.2254V81.4101H35.5899V93.2254H23.7746ZM69.883 93.2254V81.4101H81.6983V93.2254H69.883ZM0 117V8.64532H18.8756V0H28.8177V8.64532H76.6552V0H86.5973V8.64532H105.473V117H0ZM9.79803 107.202H95.6749V45.532H9.79803V107.202ZM9.79803 36.8867H95.6749V18.4434H9.79803V36.8867ZM9.79803 36.8867V18.4434V36.8867Z" fill="#6D8EF2"/>
</svg>
