<svg width="117" height="117" viewBox="0 0 117 117" fill="none" xmlns="http://www.w3.org/2000/svg">
<path d="M49.9988 85.3005L91.064 44.0911L83.7155 36.8867L49.9988 70.7475L32.9963 53.7451L25.7919 60.9495L49.9988 85.3005ZM58.5 117C50.5271 117 42.9624 115.463 35.806 112.389C28.6496 109.315 22.4298 105.137 17.1466 99.8534C11.8633 94.5702 7.68473 88.3744 4.61084 81.266C1.53695 74.1576 0 66.569 0 58.5C0 50.431 1.53695 42.8184 4.61084 35.6619C7.68473 28.5055 11.8633 22.3097 17.1466 17.0745C22.4298 11.8393 28.6256 7.68473 35.734 4.61084C42.8424 1.53695 50.431 0 58.5 0C66.569 0 74.1816 1.53695 81.3381 4.61084C88.4945 7.68473 94.6903 11.8393 99.9255 17.0745C105.161 22.3097 109.315 28.4815 112.389 35.5899C115.463 42.6983 117 50.335 117 58.5C117 66.569 115.463 74.1576 112.389 81.266C109.315 88.3744 105.161 94.5702 99.9255 99.8534C94.6903 105.137 88.5185 109.315 81.4101 112.389C74.3017 115.463 66.665 117 58.5 117ZM58.5 107.202C72.0443 107.202 83.5474 102.447 93.0092 92.9372C102.471 83.4273 107.202 71.9483 107.202 58.5C107.202 44.9557 102.471 33.4526 93.0092 23.9908C83.5474 14.5289 72.0443 9.79803 58.5 9.79803C45.0517 9.79803 33.5727 14.5289 24.0628 23.9908C14.553 33.4526 9.79803 44.9557 9.79803 58.5C9.79803 71.9483 14.553 83.4273 24.0628 92.9372C33.5727 102.447 45.0517 107.202 58.5 107.202Z" fill="#6D8EF2"/>
</svg>
