<svg width="42" height="32" viewBox="0 0 42 32" fill="none" xmlns="http://www.w3.org/2000/svg">
<path d="M1.19448 5.69782C1.21762 4.37194 1.76652 3.10955 2.72042 2.18838C3.67433 1.2672 4.9551 0.762697 6.28098 0.78584L36.2764 1.30941C37.6023 1.33256 38.8647 1.88145 39.7858 2.83536C40.707 3.78926 41.2115 5.07003 41.1884 6.39591L40.8393 26.3929C40.8162 27.7187 40.2673 28.9811 39.3134 29.9023C38.3595 30.8235 37.0787 31.328 35.7528 31.3048L5.7574 30.7813C4.43152 30.7581 3.16914 30.2092 2.24797 29.2553C1.32679 28.3014 0.822285 27.0207 0.845428 25.6948L1.19448 5.69782ZM6.23735 3.28546C5.57441 3.27389 4.93402 3.52614 4.45707 3.98673C3.98012 4.44732 3.70567 5.07851 3.6941 5.74145L3.68463 6.28386L20.9987 17.0877L38.6793 6.8947L38.6888 6.35228C38.7003 5.68934 38.4481 5.04896 37.9875 4.572C37.5269 4.09505 36.8957 3.8206 36.2328 3.80903L6.23735 3.28546ZM38.6284 9.80925L26.737 16.6653L38.3788 24.1121L38.6284 9.80925ZM38.2434 26.9952L24.297 18.0729L20.9478 20.0022L17.668 17.9572L3.41878 26.3848C3.55154 26.9192 3.85701 27.3948 4.28777 27.7378C4.71853 28.0808 5.25048 28.272 5.80104 28.2817L35.7965 28.8052C36.3467 28.8149 36.8847 28.6427 37.3272 28.3155C37.7696 27.9882 38.0916 27.5241 38.2434 26.9952ZM3.3841 23.5012L15.2787 16.4653L3.63375 9.19842L3.3841 23.5012Z" fill="white"/>
</svg>
