<svg width="58" height="56" viewBox="0 0 58 56" fill="none" xmlns="http://www.w3.org/2000/svg">
<path d="M28.7082 0C12.8469 0 0 12.8469 0 28.7082C0 41.4116 8.21773 52.1413 19.6292 55.9452C21.0647 56.1964 21.6029 55.3351 21.6029 54.5815C21.6029 53.8997 21.5671 51.6389 21.5671 49.2346C14.3541 50.5624 12.4881 47.4762 11.9139 45.8614C11.5909 45.036 10.1914 42.4882 8.97132 41.8064C7.96653 41.2681 6.53112 39.9403 8.93544 39.9044C11.1962 39.8685 12.811 41.9858 13.3493 42.847C15.9331 47.1891 20.0599 45.9691 21.7106 45.2155C21.9618 43.3494 22.7154 42.0934 23.5407 41.3757C17.1532 40.658 10.4785 38.1819 10.4785 27.201C10.4785 24.079 11.5909 21.4953 13.4211 19.4857C13.134 18.768 12.1292 15.8254 13.7082 11.878C13.7082 11.878 16.1125 11.1244 21.6029 14.8206C23.8996 14.1747 26.3398 13.8517 28.78 13.8517C31.2202 13.8517 33.6604 14.1747 35.9571 14.8206C41.4475 11.0886 43.8518 11.878 43.8518 11.878C45.4308 15.8254 44.426 18.768 44.1389 19.4857C45.969 21.4953 47.0815 24.0431 47.0815 27.201C47.0815 38.2178 40.3709 40.658 33.9834 41.3757C35.024 42.2729 35.9212 43.9954 35.9212 46.6868C35.9212 50.5265 35.8853 53.6126 35.8853 54.5815C35.8853 55.3351 36.4236 56.2322 37.859 55.9452C43.5584 54.0217 48.5109 50.359 52.0194 45.473C55.5278 40.5869 57.4155 34.7235 57.4165 28.7082C57.4165 12.8469 44.5695 0 28.7082 0Z" fill="black"/>
</svg>
