<svg width="128" height="117" viewBox="0 0 128 117" fill="none" xmlns="http://www.w3.org/2000/svg">
<path d="M63.5904 117L56.5422 110.735C45.3695 100.502 36.1546 91.6787 28.8976 84.2651C21.6406 76.8514 15.8715 70.2209 11.5904 64.3735C7.30924 58.5261 4.30723 53.2269 2.58434 48.4759C0.861446 43.7249 0 38.8956 0 33.988C0 24.2771 3.23695 16.1847 9.71084 9.71084C16.1847 3.23695 24.2249 0 33.8313 0C39.7831 0 45.2651 1.35743 50.2771 4.07229C55.2892 6.78715 59.7269 10.755 63.5904 15.9759C67.9759 10.4418 72.6225 6.39558 77.5301 3.83735C82.4378 1.27912 87.7108 0 93.3494 0C102.956 0 110.996 3.23695 117.47 9.71084C123.944 16.1847 127.181 24.2771 127.181 33.988C127.181 38.8956 126.319 43.7249 124.596 48.4759C122.873 53.2269 119.871 58.5261 115.59 64.3735C111.309 70.2209 105.54 76.8514 98.2831 84.2651C91.0261 91.6787 81.8112 100.502 70.6386 110.735L63.5904 117ZM63.5904 102.904C74.1365 93.1928 82.8032 84.8916 89.5904 78C96.3775 71.1084 101.781 65.0783 105.801 59.9096C109.821 54.741 112.614 50.1205 114.181 46.0482C115.747 41.9759 116.53 37.9558 116.53 33.988C116.53 27.2008 114.363 21.6145 110.03 17.2289C105.697 12.8434 100.137 10.6506 93.3494 10.6506C88.0241 10.6506 83.0904 12.2952 78.5482 15.5843C74.006 18.8735 70.3253 23.494 67.506 29.4458H59.5181C56.8032 23.5984 53.1486 19.004 48.5542 15.6627C43.9598 12.3213 39.0522 10.6506 33.8313 10.6506C27.0442 10.6506 21.4839 12.8434 17.1506 17.2289C12.8173 21.6145 10.6506 27.2008 10.6506 33.988C10.6506 38.0602 11.4598 42.1325 13.0783 46.2048C14.6968 50.2771 17.49 54.9498 21.4578 60.2229C25.4257 65.496 30.8293 71.5522 37.6687 78.3916C44.508 85.2309 53.1486 93.4016 63.5904 102.904Z" fill="#6D8EF2"/>
</svg>
