<svg width="568" height="71" viewBox="0 0 568 71" fill="none" xmlns="http://www.w3.org/2000/svg">
<path d="M19.5918 56.6489C16.0753 56.6489 12.9105 56.2209 10.0973 55.3649C7.28412 54.4585 4.59653 52.8975 2.03453 50.6819C1.38147 50.128 0.879118 49.4986 0.527471 48.7936C0.175824 48.0887 0 47.3837 0 46.6787C0 45.5206 0.401882 44.5135 1.20565 43.6574C2.05965 42.7511 3.11459 42.2979 4.37047 42.2979C5.32494 42.2979 6.17894 42.6 6.93247 43.2043C8.84141 44.7652 10.7252 45.9486 12.5839 46.7543C14.4929 47.5599 16.8288 47.9628 19.5918 47.9628C21.4505 47.9628 23.1585 47.6858 24.7158 47.1319C26.2731 46.5277 27.5289 45.7472 28.4834 44.7904C29.4379 43.7833 29.9151 42.6504 29.9151 41.3915C29.9151 39.8809 29.463 38.5968 28.5588 37.5394C27.6545 36.4819 26.2731 35.6007 24.4144 34.8957C22.5557 34.1404 20.1946 33.5613 17.3312 33.1585C14.6185 32.7557 12.2323 32.1514 10.1726 31.3457C8.113 30.4897 6.37988 29.4323 4.9733 28.1734C3.61694 26.8642 2.58712 25.3535 1.88382 23.6415C1.18053 21.8791 0.828882 19.9152 0.828882 17.75C0.828882 14.4769 1.65777 11.6823 3.31553 9.36595C5.02353 7.04964 7.30924 5.28723 10.1726 4.07872C13.0361 2.87021 16.2009 2.26596 19.6671 2.26596C22.9324 2.26596 25.9465 2.7695 28.7095 3.77659C31.5227 4.73333 33.8084 5.96702 35.5666 7.47766C37.0234 8.63581 37.7518 9.97021 37.7518 11.4809C37.7518 12.5887 37.3248 13.5957 36.4708 14.5021C35.6168 15.4085 34.6121 15.8617 33.4567 15.8617C32.7032 15.8617 32.025 15.6351 31.4222 15.1819C30.6184 14.4769 29.5384 13.8223 28.182 13.2181C26.8257 12.5635 25.3939 12.0348 23.8869 11.6319C22.3798 11.1787 20.9732 10.9521 19.6671 10.9521C17.507 10.9521 15.6734 11.2291 14.1664 11.783C12.7095 12.3369 11.6044 13.0922 10.8508 14.0489C10.0973 15.0057 9.72053 16.1135 9.72053 17.3723C9.72053 18.883 10.1475 20.1418 11.0015 21.1489C11.9058 22.1057 13.1868 22.8862 14.8445 23.4904C16.5023 24.0443 18.4866 24.5479 20.7974 25.0011C23.8115 25.555 26.4489 26.2096 28.7095 26.9649C31.0203 27.7202 32.9292 28.7021 34.4363 29.9106C35.9434 31.0688 37.0737 32.5543 37.8272 34.367C38.5807 36.1294 38.9575 38.2947 38.9575 40.8628C38.9575 44.1358 38.0532 46.9557 36.2448 49.3223C34.4363 51.689 32.0501 53.5018 29.0862 54.7606C26.1726 56.0195 23.0078 56.6489 19.5918 56.6489Z" fill="white"/>
<path d="M67.7182 14.7287C71.2346 14.7287 74.3743 15.6351 77.1373 17.4479C79.9505 19.2103 82.1608 21.6525 83.7683 24.7745C85.4261 27.8965 86.255 31.522 86.255 35.6511C86.255 39.7801 85.4261 43.4309 83.7683 46.6032C82.1608 49.7252 79.9756 52.1926 77.2126 54.0053C74.4999 55.7677 71.4356 56.6489 68.0196 56.6489C66.0102 56.6489 64.1263 56.3216 62.3681 55.667C60.6099 55.0124 59.0526 54.1816 57.6962 53.1745C56.3901 52.1674 55.3603 51.1603 54.6068 50.1532C53.9035 49.0957 53.5518 48.2145 53.5518 47.5096L55.8878 46.5277V66.3926C55.8878 67.7018 55.4608 68.7844 54.6068 69.6404C53.7528 70.5468 52.6727 71 51.3666 71C50.0605 71 48.9804 70.572 48.1264 69.716C47.2724 68.8599 46.8454 67.7521 46.8454 66.3926V20.0915C46.8454 18.7823 47.2724 17.6996 48.1264 16.8436C48.9804 15.9372 50.0605 15.484 51.3666 15.484C52.6727 15.484 53.7528 15.9372 54.6068 16.8436C55.4608 17.6996 55.8878 18.7823 55.8878 20.0915V23.7926L54.6068 23.1128C54.6068 22.4582 54.9584 21.6777 55.6617 20.7713C56.365 19.8145 57.3195 18.883 58.5251 17.9766C59.7308 17.0199 61.1122 16.2394 62.6695 15.6351C64.277 15.0308 65.9599 14.7287 67.7182 14.7287ZM66.5879 23.0372C64.3775 23.0372 62.4435 23.5911 60.7857 24.6989C59.1279 25.8067 57.8218 27.3174 56.8673 29.2309C55.9631 31.094 55.511 33.234 55.511 35.6511C55.511 38.0177 55.9631 40.183 56.8673 42.1468C57.8218 44.0603 59.1279 45.5709 60.7857 46.6787C62.4435 47.7865 64.3775 48.3404 66.5879 48.3404C68.7982 48.3404 70.7072 47.7865 72.3147 46.6787C73.9725 45.5709 75.2535 44.0603 76.1577 42.1468C77.1122 40.183 77.5894 38.0177 77.5894 35.6511C77.5894 33.234 77.1122 31.094 76.1577 29.2309C75.2535 27.3174 73.9725 25.8067 72.3147 24.6989C70.7072 23.5911 68.7982 23.0372 66.5879 23.0372Z" fill="white"/>
<path d="M127.166 14.7287C128.472 14.7287 129.553 15.1567 130.407 16.0128C131.261 16.8688 131.688 17.9766 131.688 19.3362V51.2862C131.688 52.5954 131.261 53.7032 130.407 54.6096C129.553 55.4656 128.472 55.8936 127.166 55.8936C125.86 55.8936 124.78 55.4656 123.926 54.6096C123.072 53.7032 122.645 52.5954 122.645 51.2862V47.5851L124.303 48.2649C124.303 48.9195 123.951 49.7252 123.248 50.6819C122.545 51.5883 121.59 52.4947 120.385 53.4011C119.179 54.3074 117.747 55.0879 116.089 55.7426C114.482 56.3468 112.724 56.6489 110.815 56.6489C107.349 56.6489 104.209 55.7677 101.396 54.0053C98.5825 52.1926 96.347 49.7252 94.6892 46.6032C93.0817 43.4309 92.2779 39.8053 92.2779 35.7266C92.2779 31.5975 93.0817 27.972 94.6892 24.85C96.347 21.6777 98.5574 19.2103 101.32 17.4479C104.083 15.6351 107.148 14.7287 110.513 14.7287C112.673 14.7287 114.658 15.056 116.466 15.7106C118.275 16.3652 119.832 17.1961 121.138 18.2032C122.494 19.2103 123.524 20.2426 124.228 21.3C124.981 22.3071 125.358 23.1631 125.358 23.8681L122.645 24.85V19.3362C122.645 18.0269 123.072 16.9443 123.926 16.0883C124.78 15.1819 125.86 14.7287 127.166 14.7287ZM111.945 48.3404C114.155 48.3404 116.089 47.7865 117.747 46.6787C119.405 45.5709 120.686 44.0603 121.59 42.1468C122.545 40.2333 123.022 38.0933 123.022 35.7266C123.022 33.3096 122.545 31.1443 121.59 29.2309C120.686 27.3174 119.405 25.8067 117.747 24.6989C116.089 23.5911 114.155 23.0372 111.945 23.0372C109.785 23.0372 107.876 23.5911 106.218 24.6989C104.56 25.8067 103.254 27.3174 102.3 29.2309C101.396 31.1443 100.944 33.3096 100.944 35.7266C100.944 38.0933 101.396 40.2333 102.3 42.1468C103.254 44.0603 104.56 45.5709 106.218 46.6787C107.876 47.7865 109.785 48.3404 111.945 48.3404Z" fill="white"/>
<path d="M145.999 55.8936C144.693 55.8936 143.613 55.4656 142.759 54.6096C141.905 53.7032 141.478 52.5954 141.478 51.2862V20.0915C141.478 18.7823 141.905 17.6996 142.759 16.8436C143.613 15.9372 144.693 15.484 145.999 15.484C147.305 15.484 148.385 15.9372 149.239 16.8436C150.093 17.6996 150.52 18.7823 150.52 20.0915V27.1915L149.993 22.1308C150.546 20.9223 151.249 19.8649 152.103 18.9585C153.007 18.0018 154.012 17.2213 155.117 16.617C156.222 15.9624 157.403 15.484 158.659 15.1819C159.914 14.8798 161.17 14.7287 162.426 14.7287C163.933 14.7287 165.189 15.1567 166.194 16.0128C167.249 16.8688 167.776 17.8759 167.776 19.034C167.776 20.6957 167.349 21.9043 166.495 22.6596C165.641 23.3645 164.712 23.717 163.707 23.717C162.753 23.717 161.874 23.5408 161.07 23.1883C160.316 22.8358 159.437 22.6596 158.433 22.6596C157.528 22.6596 156.599 22.8862 155.644 23.3394C154.74 23.7422 153.886 24.3968 153.082 25.3032C152.329 26.2096 151.701 27.3426 151.199 28.7021C150.747 30.0113 150.52 31.5723 150.52 33.3851V51.2862C150.52 52.5954 150.093 53.7032 149.239 54.6096C148.385 55.4656 147.305 55.8936 145.999 55.8936Z" fill="white"/>
<path d="M179.425 55.8936C178.119 55.8936 177.039 55.4656 176.185 54.6096C175.331 53.7032 174.904 52.5954 174.904 51.2862V4.60745C174.904 3.29822 175.331 2.2156 176.185 1.35957C177.039 0.45319 178.119 0 179.425 0C180.732 0 181.812 0.45319 182.666 1.35957C183.52 2.2156 183.947 3.29822 183.947 4.60745V51.2862C183.947 52.5954 183.52 53.7032 182.666 54.6096C181.812 55.4656 180.732 55.8936 179.425 55.8936ZM203.388 15.484C204.543 15.484 205.548 15.9624 206.402 16.9191C207.256 17.8759 207.683 18.8074 207.683 19.7138C207.683 20.9223 207.08 22.0553 205.874 23.1128L183.193 44.0351L182.816 33.6117L200.072 16.9191C201.027 15.9624 202.132 15.484 203.388 15.484ZM204.518 55.8181C203.212 55.8181 202.107 55.3145 201.202 54.3074L187.262 39.5032L194.119 33.1585L207.683 47.9628C208.637 48.9699 209.114 50.1028 209.114 51.3617C209.114 52.6709 208.587 53.7535 207.532 54.6096C206.527 55.4152 205.523 55.8181 204.518 55.8181Z" fill="white"/>
<path d="M226.48 51.2862C226.48 52.5954 226.028 53.7032 225.123 54.6096C224.269 55.4656 223.189 55.8936 221.883 55.8936C220.627 55.8936 219.572 55.4656 218.718 54.6096C217.864 53.7032 217.437 52.5954 217.437 51.2862V4.60745C217.437 3.29822 217.864 2.2156 218.718 1.35957C219.623 0.45319 220.728 0 222.034 0C223.34 0 224.395 0.45319 225.199 1.35957C226.053 2.2156 226.48 3.29822 226.48 4.60745V51.2862Z" fill="white"/>
<path d="M255.247 56.6489C250.977 56.6489 247.26 55.7677 244.095 54.0053C240.98 52.1926 238.569 49.7504 236.861 46.6787C235.203 43.6071 234.374 40.1326 234.374 36.2553C234.374 31.7234 235.278 27.8713 237.087 24.6989C238.946 21.4762 241.357 19.0089 244.321 17.2968C247.285 15.5848 250.424 14.7287 253.74 14.7287C256.302 14.7287 258.713 15.2574 260.974 16.3149C263.285 17.3723 265.319 18.8326 267.077 20.6957C268.836 22.5085 270.217 24.6234 271.222 27.0404C272.277 29.4574 272.804 32.0255 272.804 34.7447C272.754 35.9532 272.277 36.9351 271.372 37.6904C270.468 38.4457 269.413 38.8234 268.208 38.8234H239.423L237.162 31.2702H264.817L263.159 32.7808V30.7415C263.059 29.2812 262.531 27.972 261.577 26.8138C260.672 25.6557 259.517 24.7493 258.11 24.0947C256.754 23.3897 255.297 23.0372 253.74 23.0372C252.233 23.0372 250.826 23.2387 249.52 23.6415C248.214 24.0443 247.084 24.7241 246.129 25.6809C245.175 26.6376 244.421 27.9216 243.869 29.533C243.316 31.1443 243.04 33.1837 243.04 35.6511C243.04 38.3702 243.592 40.6865 244.698 42.6C245.853 44.4631 247.31 45.8982 249.068 46.9053C250.876 47.8621 252.785 48.3404 254.795 48.3404C256.654 48.3404 258.135 48.1894 259.241 47.8872C260.346 47.5851 261.225 47.2326 261.878 46.8298C262.581 46.3766 263.209 45.9989 263.762 45.6968C264.666 45.2436 265.52 45.017 266.324 45.017C267.429 45.017 268.333 45.3947 269.037 46.15C269.79 46.9053 270.167 47.7865 270.167 48.7936C270.167 50.1532 269.464 51.3869 268.057 52.4947C266.751 53.6025 264.917 54.5844 262.556 55.4404C260.195 56.2461 257.759 56.6489 255.247 56.6489Z" fill="white"/>
<path d="M298.412 56.6489C294.896 56.6489 291.731 56.2209 288.918 55.3649C286.105 54.4585 283.417 52.8975 280.855 50.6819C280.202 50.128 279.7 49.4986 279.348 48.7936C278.996 48.0887 278.821 47.3837 278.821 46.6787C278.821 45.5206 279.223 44.5135 280.026 43.6574C280.88 42.7511 281.935 42.2979 283.191 42.2979C284.146 42.2979 285 42.6 285.753 43.2043C287.662 44.7652 289.546 45.9486 291.405 46.7543C293.314 47.5599 295.649 47.9628 298.412 47.9628C300.271 47.9628 301.979 47.6858 303.536 47.1319C305.094 46.5277 306.35 45.7472 307.304 44.7904C308.259 43.7833 308.736 42.6504 308.736 41.3915C308.736 39.8809 308.284 38.5968 307.379 37.5394C306.475 36.4819 305.094 35.6007 303.235 34.8957C301.376 34.1404 299.015 33.5613 296.152 33.1585C293.439 32.7557 291.053 32.1514 288.993 31.3457C286.934 30.4897 285.201 29.4323 283.794 28.1734C282.438 26.8642 281.408 25.3535 280.704 23.6415C280.001 21.8791 279.65 19.9152 279.65 17.75C279.65 14.4769 280.478 11.6823 282.136 9.36595C283.844 7.04964 286.13 5.28723 288.993 4.07872C291.857 2.87021 295.022 2.26596 298.488 2.26596C301.753 2.26596 304.767 2.7695 307.53 3.77659C310.343 4.73333 312.629 5.96702 314.387 7.47766C315.844 8.63581 316.572 9.97021 316.572 11.4809C316.572 12.5887 316.145 13.5957 315.291 14.5021C314.437 15.4085 313.433 15.8617 312.277 15.8617C311.524 15.8617 310.846 15.6351 310.243 15.1819C309.439 14.4769 308.359 13.8223 307.003 13.2181C305.646 12.5635 304.215 12.0348 302.708 11.6319C301.2 11.1787 299.794 10.9521 298.488 10.9521C296.328 10.9521 294.494 11.2291 292.987 11.783C291.53 12.3369 290.425 13.0922 289.671 14.0489C288.918 15.0057 288.541 16.1135 288.541 17.3723C288.541 18.883 288.968 20.1418 289.822 21.1489C290.726 22.1057 292.007 22.8862 293.665 23.4904C295.323 24.0443 297.307 24.5479 299.618 25.0011C302.632 25.555 305.27 26.2096 307.53 26.9649C309.841 27.7202 311.75 28.7021 313.257 29.9106C314.764 31.0688 315.894 32.5543 316.648 34.367C317.401 36.1294 317.778 38.2947 317.778 40.8628C317.778 44.1358 316.874 46.9557 315.065 49.3223C313.257 51.689 310.871 53.5018 307.907 54.7606C304.993 56.0195 301.828 56.6489 298.412 56.6489Z" fill="white"/>
<path d="M364.774 35.7266C364.774 39.8557 363.845 43.5064 361.986 46.6787C360.178 49.8007 357.716 52.2429 354.602 54.0053C351.537 55.7677 348.096 56.6489 344.278 56.6489C340.46 56.6489 336.994 55.7677 333.88 54.0053C330.815 52.2429 328.354 49.8007 326.495 46.6787C324.686 43.5064 323.782 39.8557 323.782 35.7266C323.782 31.5975 324.686 27.972 326.495 24.85C328.354 21.6777 330.815 19.2103 333.88 17.4479C336.994 15.6351 340.46 14.7287 344.278 14.7287C348.096 14.7287 351.537 15.6351 354.602 17.4479C357.716 19.2103 360.178 21.6777 361.986 24.85C363.845 27.972 364.774 31.5975 364.774 35.7266ZM355.732 35.7266C355.732 33.1585 355.204 30.9429 354.149 29.0798C353.145 27.1663 351.763 25.6809 350.005 24.6234C348.297 23.566 346.388 23.0372 344.278 23.0372C342.168 23.0372 340.234 23.566 338.476 24.6234C336.768 25.6809 335.387 27.1663 334.332 29.0798C333.327 30.9429 332.825 33.1585 332.825 35.7266C332.825 38.2443 333.327 40.4599 334.332 42.3734C335.387 44.2365 336.768 45.6968 338.476 46.7543C340.234 47.8117 342.168 48.3404 344.278 48.3404C346.388 48.3404 348.297 47.8117 350.005 46.7543C351.763 45.6968 353.145 44.2365 354.149 42.3734C355.204 40.4599 355.732 38.2443 355.732 35.7266Z" fill="white"/>
<path d="M377.209 55.8936C375.903 55.8936 374.823 55.4656 373.969 54.6096C373.115 53.7032 372.688 52.5954 372.688 51.2862V20.0915C372.688 18.7823 373.115 17.6996 373.969 16.8436C374.823 15.9372 375.903 15.484 377.209 15.484C378.515 15.484 379.595 15.9372 380.449 16.8436C381.303 17.6996 381.73 18.7823 381.73 20.0915V27.1915L381.203 22.1308C381.756 20.9223 382.459 19.8649 383.313 18.9585C384.217 18.0018 385.222 17.2213 386.327 16.617C387.432 15.9624 388.613 15.484 389.869 15.1819C391.124 14.8798 392.38 14.7287 393.636 14.7287C395.143 14.7287 396.399 15.1567 397.404 16.0128C398.459 16.8688 398.986 17.8759 398.986 19.034C398.986 20.6957 398.559 21.9043 397.705 22.6596C396.851 23.3645 395.922 23.717 394.917 23.717C393.963 23.717 393.084 23.5408 392.28 23.1883C391.526 22.8358 390.647 22.6596 389.642 22.6596C388.738 22.6596 387.809 22.8862 386.854 23.3394C385.95 23.7422 385.096 24.3968 384.292 25.3032C383.539 26.2096 382.911 27.3426 382.409 28.7021C381.956 30.0113 381.73 31.5723 381.73 33.3851V51.2862C381.73 52.5954 381.303 53.7032 380.449 54.6096C379.595 55.4656 378.515 55.8936 377.209 55.8936Z" fill="white"/>
<path d="M409.882 55.8936C408.576 55.8936 407.496 55.4656 406.642 54.6096C405.788 53.7032 405.361 52.5954 405.361 51.2862V20.0915C405.361 18.7823 405.788 17.6996 406.642 16.8436C407.496 15.9372 408.576 15.484 409.882 15.484C411.188 15.484 412.268 15.9372 413.122 16.8436C413.976 17.6996 414.403 18.7823 414.403 20.0915V27.1915L413.875 22.1308C414.428 20.9223 415.131 19.8649 415.985 18.9585C416.89 18.0018 417.894 17.2213 419 16.617C420.105 15.9624 421.285 15.484 422.541 15.1819C423.797 14.8798 425.053 14.7287 426.309 14.7287C427.816 14.7287 429.072 15.1567 430.076 16.0128C431.131 16.8688 431.659 17.8759 431.659 19.034C431.659 20.6957 431.232 21.9043 430.378 22.6596C429.524 23.3645 428.594 23.717 427.59 23.717C426.635 23.717 425.756 23.5408 424.952 23.1883C424.199 22.8358 423.32 22.6596 422.315 22.6596C421.411 22.6596 420.481 22.8862 419.527 23.3394C418.623 23.7422 417.769 24.3968 416.965 25.3032C416.211 26.2096 415.583 27.3426 415.081 28.7021C414.629 30.0113 414.403 31.5723 414.403 33.3851V51.2862C414.403 52.5954 413.976 53.7032 413.122 54.6096C412.268 55.4656 411.188 55.8936 409.882 55.8936Z" fill="white"/>
<path d="M446.548 51.2862C446.548 52.5954 446.121 53.7032 445.267 54.6096C444.413 55.4656 443.333 55.8936 442.027 55.8936C440.721 55.8936 439.641 55.4656 438.787 54.6096C437.933 53.7032 437.506 52.5954 437.506 51.2862V20.0915C437.506 18.7823 437.933 17.6996 438.787 16.8436C439.641 15.9372 440.721 15.484 442.027 15.484C443.333 15.484 444.413 15.9372 445.267 16.8436C446.121 17.6996 446.548 18.7823 446.548 20.0915V51.2862ZM441.952 10.5745C440.244 10.5745 439.038 10.2975 438.335 9.74362C437.631 9.18972 437.28 8.2078 437.28 6.79787V5.36276C437.28 3.90248 437.656 2.92057 438.41 2.41702C439.214 1.86312 440.419 1.58617 442.027 1.58617C443.785 1.58617 445.016 1.86312 445.719 2.41702C446.422 2.97092 446.774 3.95284 446.774 5.36276V6.79787C446.774 8.25815 446.397 9.26525 445.644 9.81915C444.89 10.3227 443.66 10.5745 441.952 10.5745Z" fill="white"/>
<path d="M453.505 49.6245C453.003 48.9195 452.777 48.0131 452.827 46.9053C452.877 45.7975 453.53 44.8408 454.786 44.0351C455.59 43.5316 456.444 43.3301 457.348 43.4309C458.253 43.4812 459.132 43.9344 459.986 44.7904C461.442 46.2507 462.975 47.3837 464.582 48.1894C466.19 48.995 468.199 49.3979 470.61 49.3979C471.364 49.3475 472.193 49.2468 473.097 49.0957C474.001 48.8943 474.78 48.4915 475.433 47.8872C476.136 47.2326 476.488 46.2507 476.488 44.9415C476.488 43.8337 476.111 42.9525 475.358 42.2979C474.604 41.6433 473.599 41.0894 472.344 40.6362C471.138 40.183 469.781 39.755 468.274 39.3521C466.717 38.8989 465.11 38.3954 463.452 37.8415C461.844 37.2876 460.362 36.5826 459.006 35.7266C457.65 34.8202 456.545 33.6369 455.691 32.1766C454.837 30.7163 454.409 28.8784 454.409 26.6628C454.409 24.145 455.113 22.005 456.519 20.2426C457.926 18.4801 459.734 17.1206 461.945 16.1638C464.205 15.2071 466.566 14.7287 469.028 14.7287C470.585 14.7287 472.218 14.9301 473.926 15.333C475.634 15.6855 477.267 16.2897 478.824 17.1457C480.381 17.9514 481.687 19.034 482.742 20.3936C483.295 21.1489 483.621 22.0553 483.722 23.1128C483.822 24.1702 483.345 25.1269 482.29 25.983C481.537 26.5872 480.657 26.8642 479.653 26.8138C478.648 26.7131 477.819 26.3606 477.166 25.7564C476.312 24.6486 475.157 23.7674 473.7 23.1128C472.293 22.4582 470.661 22.1308 468.802 22.1308C468.048 22.1308 467.22 22.2316 466.315 22.433C465.461 22.584 464.708 22.9617 464.055 23.566C463.402 24.1199 463.075 25.0262 463.075 26.2851C463.075 27.4433 463.452 28.3748 464.205 29.0798C464.959 29.7344 465.964 30.2883 467.22 30.7415C468.526 31.1443 469.907 31.5472 471.364 31.95C472.871 32.3528 474.403 32.8312 475.96 33.3851C477.518 33.939 478.949 34.6692 480.256 35.5755C481.562 36.4819 482.617 37.6652 483.42 39.1255C484.224 40.5355 484.626 42.3482 484.626 44.5638C484.626 47.1319 483.873 49.3223 482.365 51.1351C480.858 52.9479 478.975 54.3326 476.714 55.2894C474.453 56.1957 472.143 56.6489 469.781 56.6489C466.818 56.6489 463.854 56.1454 460.89 55.1383C457.926 54.0809 455.464 52.2429 453.505 49.6245Z" fill="white"/>
<path d="M531.301 35.7266C531.301 39.8557 530.372 43.5064 528.513 46.6787C526.705 49.8007 524.243 52.2429 521.129 54.0053C518.064 55.7677 514.623 56.6489 510.805 56.6489C506.987 56.6489 503.521 55.7677 500.407 54.0053C497.342 52.2429 494.881 49.8007 493.022 46.6787C491.214 43.5064 490.309 39.8557 490.309 35.7266C490.309 31.5975 491.214 27.972 493.022 24.85C494.881 21.6777 497.342 19.2103 500.407 17.4479C503.521 15.6351 506.987 14.7287 510.805 14.7287C514.623 14.7287 518.064 15.6351 521.129 17.4479C524.243 19.2103 526.705 21.6777 528.513 24.85C530.372 27.972 531.301 31.5975 531.301 35.7266ZM522.259 35.7266C522.259 33.1585 521.731 30.9429 520.677 29.0798C519.672 27.1663 518.29 25.6809 516.532 24.6234C514.824 23.566 512.915 23.0372 510.805 23.0372C508.695 23.0372 506.761 23.566 505.003 24.6234C503.295 25.6809 501.914 27.1663 500.859 29.0798C499.854 30.9429 499.352 33.1585 499.352 35.7266C499.352 38.2443 499.854 40.4599 500.859 42.3734C501.914 44.2365 503.295 45.6968 505.003 46.7543C506.761 47.8117 508.695 48.3404 510.805 48.3404C512.915 48.3404 514.824 47.8117 516.532 46.7543C518.29 45.6968 519.672 44.2365 520.677 42.3734C521.731 40.4599 522.259 38.2443 522.259 35.7266Z" fill="white"/>
<path d="M536.879 49.6245C536.377 48.9195 536.151 48.0131 536.201 46.9053C536.251 45.7975 536.904 44.8408 538.16 44.0351C538.964 43.5316 539.818 43.3301 540.722 43.4309C541.626 43.4812 542.506 43.9344 543.36 44.7904C544.816 46.2507 546.349 47.3837 547.956 48.1894C549.564 48.995 551.573 49.3979 553.984 49.3979C554.738 49.3475 555.567 49.2468 556.471 49.0957C557.375 48.8943 558.154 48.4915 558.807 47.8872C559.51 47.2326 559.862 46.2507 559.862 44.9415C559.862 43.8337 559.485 42.9525 558.732 42.2979C557.978 41.6433 556.973 41.0894 555.717 40.6362C554.512 40.183 553.155 39.755 551.648 39.3521C550.091 38.8989 548.484 38.3954 546.826 37.8415C545.218 37.2876 543.736 36.5826 542.38 35.7266C541.024 34.8202 539.918 33.6369 539.064 32.1766C538.21 30.7163 537.783 28.8784 537.783 26.6628C537.783 24.145 538.487 22.005 539.893 20.2426C541.3 18.4801 543.108 17.1206 545.319 16.1638C547.579 15.2071 549.94 14.7287 552.402 14.7287C553.959 14.7287 555.592 14.9301 557.3 15.333C559.008 15.6855 560.641 16.2897 562.198 17.1457C563.755 17.9514 565.061 19.034 566.116 20.3936C566.669 21.1489 566.995 22.0553 567.096 23.1128C567.196 24.1702 566.719 25.1269 565.664 25.983C564.911 26.5872 564.031 26.8642 563.027 26.8138C562.022 26.7131 561.193 26.3606 560.54 25.7564C559.686 24.6486 558.531 23.7674 557.074 23.1128C555.667 22.4582 554.035 22.1308 552.176 22.1308C551.422 22.1308 550.593 22.2316 549.689 22.433C548.835 22.584 548.082 22.9617 547.429 23.566C546.776 24.1199 546.449 25.0262 546.449 26.2851C546.449 27.4433 546.826 28.3748 547.579 29.0798C548.333 29.7344 549.338 30.2883 550.593 30.7415C551.9 31.1443 553.281 31.5472 554.738 31.95C556.245 32.3528 557.777 32.8312 559.334 33.3851C560.892 33.939 562.323 34.6692 563.63 35.5755C564.936 36.4819 565.991 37.6652 566.794 39.1255C567.598 40.5355 568 42.3482 568 44.5638C568 47.1319 567.246 49.3223 565.739 51.1351C564.232 52.9479 562.349 54.3326 560.088 55.2894C557.827 56.1957 555.516 56.6489 553.155 56.6489C550.192 56.6489 547.228 56.1454 544.264 55.1383C541.3 54.0809 538.838 52.2429 536.879 49.6245Z" fill="white"/>
</svg>
