<svg width="95" height="60" viewBox="0 0 95 60" fill="none" xmlns="http://www.w3.org/2000/svg">
<path d="M47.8059 28.5581C49.5801 26.4496 50.9107 24.2946 51.7977 22.093C52.6848 19.8915 53.1283 17.3643 53.1283 14.5116C53.1283 11.5969 52.6848 9.03876 51.7977 6.83721C50.9107 4.63566 49.5472 2.51163 47.7074 0.465116C52.8983 -0.465116 57.3994 0.356589 61.2105 2.93023C65.0216 5.50388 66.9271 9.36434 66.9271 14.5116C66.9271 19.6589 65.0216 23.5349 61.2105 26.1395C57.3994 28.7442 52.9312 29.5504 47.8059 28.5581ZM69.3912 60L69.3912 50.7907C69.3912 47.4419 68.537 44.3876 66.8285 41.6279C65.1201 38.8682 62.1304 36.4961 57.8593 34.5116C69.424 35.814 77.2926 37.845 81.4651 40.6047C85.6376 43.3643 87.7238 46.7597 87.7238 50.7907L87.7238 60L69.3912 60ZM80.4302 31.814L80.4302 22.5116L70.4753 22.5116L70.4753 16.9302L80.4302 16.9302L80.4302 7.53488L86.3439 7.53488L86.3439 16.9302L96.2002 16.9302L96.2002 22.5116L86.3439 22.5116L86.3439 31.814L80.4302 31.814ZM31.8388 29.0233C27.3049 29.0233 23.6088 27.6744 20.7505 24.9767C17.8922 22.2791 16.463 18.7907 16.463 14.5116C16.463 10.2326 17.8922 6.74419 20.7505 4.04651C23.6088 1.34884 27.3049 2.81955e-08 31.8388 3.29119e-08C36.307 3.75599e-08 39.9866 1.34884 42.8778 4.04651C45.769 6.74419 47.2146 10.2326 47.2146 14.5116C47.2146 18.7907 45.769 22.2791 42.8778 24.9767C39.9866 27.6744 36.307 29.0233 31.8388 29.0233ZM0.200195 60L0.200195 50.6977C0.200195 48.4031 0.824425 46.3256 2.07289 44.4651C3.32135 42.6046 5.02976 41.2093 7.19814 40.2791C11.9291 38.2946 16.1838 36.8682 19.962 36C23.7402 35.1318 27.6992 34.6977 31.8388 34.6977C35.9784 34.6977 39.9045 35.1318 43.617 36C47.3296 36.8682 51.5513 38.2946 56.2823 40.2791C58.4507 41.2093 60.192 42.6046 61.5062 44.4651C62.8203 46.3256 63.4774 48.4031 63.4774 50.6977L63.4774 60L0.200195 60ZM31.8388 22.6977C34.3357 22.6977 36.3891 21.9225 37.999 20.3721C39.6088 18.8217 40.4137 16.8682 40.4137 14.5116C40.4137 12.155 39.6088 10.2016 37.999 8.65116C36.3891 7.10078 34.3357 6.32558 31.8388 6.32558C29.3419 6.32558 27.2721 7.10078 25.6294 8.65116C23.9866 10.2016 23.1653 12.155 23.1653 14.5116C23.1653 16.8682 23.9702 18.8217 25.5801 20.3721C27.1899 21.9225 29.2762 22.6977 31.8388 22.6977ZM6.90245 53.6744L56.6766 53.6744L56.6766 50.7907C56.6766 49.7985 56.4137 48.8682 55.8881 48C55.3624 47.1318 54.5411 46.4496 53.424 45.9535C48.9558 44.031 45.1776 42.7287 42.0893 42.0465C39.001 41.3643 35.5842 41.0233 31.8388 41.0233C28.0934 41.0233 24.6602 41.3643 21.539 42.0465C18.4179 42.7287 14.5903 44.031 10.0565 45.9535C9.07083 46.3876 8.29876 47.0543 7.74024 47.9535C7.18171 48.8527 6.90245 49.7985 6.90245 50.7907L6.90245 53.6744Z" fill="#6D8EF2"/>
</svg>
