<svg width="49" height="60" viewBox="0 0 49 60" fill="none" xmlns="http://www.w3.org/2000/svg">
<path d="M20.8374 40.0493L37.8325 23.0542L34.5813 19.8768L21.0591 33.399L13.5961 25.936L10.197 29.335L20.8374 40.0493ZM24.0887 60C17.0443 58.2759 11.2685 54.2241 6.76108 47.8448C2.25369 41.4655 0 34.4828 0 26.8966V9.01478L24.0887 0L48.1773 9.01478V26.8966C48.1773 34.4828 45.9236 41.4655 41.4163 47.8448C36.9089 54.2241 31.133 58.2759 24.0887 60ZM24.0887 54.8276C29.7044 52.9064 34.2857 49.3719 37.8325 44.2241C41.3793 39.0764 43.1527 33.3005 43.1527 26.8966V12.5616L24.0887 5.3202L5.02463 12.5616V26.8966C5.02463 33.3005 6.79803 39.0764 10.3448 44.2241C13.8916 49.3719 18.4729 52.9064 24.0887 54.8276Z" fill="#6D8EF2"/>
</svg>
