<svg width="31" height="32" viewBox="0 0 31 32" fill="none" xmlns="http://www.w3.org/2000/svg">
<path d="M25.3241 4.83092C23.8949 3.49188 22.2122 2.44947 20.3741 1.76445C18.5359 1.07942 16.5791 0.765474 14.6176 0.8409C6.39752 1.12795 -0.0688634 8.02906 0.209433 16.2143C0.300979 18.8358 1.07897 21.3621 2.45851 23.5747L0.617297 31.348L8.45849 29.0067C10.6891 30.1162 13.1633 30.6522 15.6557 30.5658L15.6632 30.5656C23.8852 30.2784 30.3497 23.3774 30.0711 15.1846C30.0048 13.2321 29.5511 11.312 28.7361 9.53509C27.921 7.75813 26.7608 6.15939 25.3222 4.83098L25.3241 4.83092ZM15.5678 28.0511C13.3448 28.1295 11.1419 27.6102 9.19055 26.5478L8.72937 26.2937L4.07764 27.6831L5.17206 23.0803L4.862 22.6202C3.55061 20.6967 2.81385 18.4423 2.73714 16.1185C2.49987 9.32395 7.87235 3.58672 14.7127 3.34785C16.3422 3.28803 17.9674 3.5499 19.4946 4.11835C21.0217 4.68681 22.4207 5.55061 23.6107 6.65995C24.8046 7.76467 25.767 9.09384 26.4422 10.5708C27.1174 12.0478 27.4921 13.6433 27.5448 15.2654C27.7754 22.0846 22.4026 27.8124 15.5678 28.0511ZM22.0496 18.5679C21.6723 18.3953 19.8095 17.5617 19.4605 17.4463C19.1137 17.3365 18.8611 17.2815 18.6294 17.6611C18.3919 18.039 17.706 18.9053 17.4999 19.1545C17.294 19.4113 17.0729 19.4471 16.6937 19.2765C16.3164 19.1021 15.1 18.7543 13.6326 17.5354C12.4877 16.5904 11.7016 15.3984 11.4666 15.037C11.2391 14.6734 11.426 14.468 11.6059 14.276C11.7639 14.1054 11.9615 13.8283 12.1404 13.6082C12.3212 13.388 12.3778 13.2285 12.4915 12.9768C12.6051 12.7215 12.5393 12.5099 12.4406 12.3276C12.34 12.1454 11.5326 10.3406 11.1924 9.61325C10.8658 8.89484 10.5625 9.00675 10.3325 9.0054C10.1175 8.99977 9.86715 9.00852 9.6168 9.01726C9.42791 9.02854 9.24339 9.07856 9.07481 9.1642C8.90624 9.24983 8.75726 9.36922 8.63721 9.51487C8.30758 9.89786 7.38082 10.8289 7.44476 12.6596C7.50869 14.4904 8.90658 16.2033 9.10352 16.4459C9.29669 16.6887 11.867 20.3493 15.6672 21.8301C16.5653 22.1834 17.2697 22.3858 17.8197 22.5392C18.7238 22.7928 19.5298 22.7215 20.1703 22.6072C20.8818 22.4735 22.3431 21.6308 22.6272 20.7522C22.9055 19.8719 22.8796 19.1299 22.7801 18.9777C22.6823 18.8235 22.4288 18.7404 22.0496 18.5679Z" fill="white"/>
</svg>
